<svg xmlns="http://www.w3.org/2000/svg" viewBox="0 0 1809.5 773.38"><defs><style>.cls-1{fill-rule:evenodd;}</style></defs><title>logo-generic.png</title><g id="Layer_2" data-name="Layer 2"><g id="Layer_1-2" data-name="Layer 1"><path class="cls-1" d="M1800.21,433.59q-9.3,18.54-25.86,28.46T1736.59,472q-21.55,0-38.16-9.92t-25.86-28.46q-9.24-18.55-9.24-43.38v-6q0-24.84,9.24-43.38t25.8-28.52q16.56-10,38-10,21.21,0,37.82,10t26,28.52q9.36,18.54,9.35,43.38v6Q1809.5,415.05,1800.21,433.59ZM1766.3,384q0-22.91-7.77-35t-22.17-12.08q-29.82,0-29.82,47.06v6.24q0,22.91,7.54,35.1t22.51,12.19q14.28,0,22-12.36t7.71-34.93Zm-156.55,84.6a122.26,122.26,0,0,1-30,3.4q-22.34,0-38.78-9.35t-25.4-27.5q-9-18.15-9-43.66V383q0-25.29,9.13-43.54T1541,311.68q16.1-9.46,36.63-9.47,33.45,0,49.84,15.31T1646.32,360h-40.48q-1.71-12.35-7.77-18t-18.88-5.67q-13.62,0-21.61,11.57t-8,34.82v8.73q0,23.81,7.88,35.09T1583,437.84a44.76,44.76,0,0,0,13-1.65,23.3,23.3,0,0,0,8.1-3.91V409.83h-26.19V379.89h68.61v69.86a57,57,0,0,1-14.18,10.37A95.92,95.92,0,0,1,1609.75,468.57Zm-154.17-6.52Q1439,472,1417.82,472q-21.55,0-38.16-9.92t-25.86-28.46q-9.24-18.55-9.24-43.38v-6q0-24.84,9.24-43.38t25.8-28.52q16.56-10,38-10,21.21,0,37.82,10t26,28.52q9.34,18.54,9.35,43.38v6q0,24.84-9.3,43.38T1455.58,462.05Zm-8-78.08q0-22.91-7.77-35t-22.17-12.08q-29.82,0-29.83,47.06v6.24q0,22.91,7.55,35.1t22.51,12.19q14.28,0,22-12.36t7.71-34.93ZM1231.38,469.7V304.59h42.3v131h68V469.7H1231.38Zm-123.6-126.5q-6.46-6.17-21.55-6.18-9.42,0-15.19,4.37t-8.68,14.52q-2.89,10.14-2.89,27.61v7.14q0,18.15,2.66,28.13t8.56,14.12q5.91,4.14,16.45,4.13,13,0,20-5.78t7-18.48h42.07q-.57,17.69-9.3,31.13a57.49,57.49,0,0,1-24.15,20.75q-15.43,7.3-35.61,7.31-22.23,0-38.16-9.75t-24.27-28.07q-8.34-18.31-8.33-43.49v-6.91q0-25,8.67-43.38t24.5-28.29q15.81-9.87,36.68-9.87,21.32,0,36.63,7.71a57.79,57.79,0,0,1,23.76,21.38,69.87,69.87,0,0,1,9.92,31.47h-42.19Q1114.24,349.39,1107.78,343.2ZM952.64,304.59h42.08V469.7H952.64Zm-94,109.32H839V469.7h-42.3V304.59h66.56q19.29,0,33.46,5.73t21.94,16.95q7.77,11.24,7.77,27.22,0,19-7.2,30T898.1,402.34l33.68,65.55v1.81H886.42Zm20.08-69.74q-5.44-5.32-15.43-5.33H839v40.71h24.26q10.32,0,15.6-5.16t5.27-15.14Q884.15,349.5,878.71,344.17ZM709.4,368.66h61.35v32.89H709.4v34h72.69V469.7h-115V304.59H782.54v34.25H709.4ZM284.82,409.83V379.89h68.61v69.86a56.93,56.93,0,0,1-14.17,10.37,96.17,96.17,0,0,1-22.63,8.45,122.18,122.18,0,0,1-30,3.4q-22.35,0-38.78-9.35t-25.41-27.5q-9-18.15-8.95-43.66V383q0-25.29,9.12-43.54t25.24-27.73q16.09-9.46,36.62-9.47,33.47,0,49.84,15.31T353.21,360H312.72Q311,347.7,305,342t-18.88-5.67q-13.6,0-21.6,11.57t-8,34.82v8.73q0,23.81,7.89,35.09t25.57,11.29a44.69,44.69,0,0,0,13-1.65,23.36,23.36,0,0,0,8.11-3.91V409.83Zm204.92,25.74V469.7h-115V304.59H490.19v34.25H417.05v29.82H478.4v32.89H417.05v34Zm154.11-131V469.7H601.78l-55.11-96.05V469.7h-42.3V304.59h42.3l55,95.94V304.59ZM387.08,76.64c-171.45,0-310.44,139-310.44,310.44s139,310.43,310.44,310.43c132.15,0,245-82.58,289.81-199h80.05c-48,159-195.59,274.83-370.25,274.83C173.13,773.38,0,600.25,0,386.69S173.13,0,386.69,0C561.35,0,709,115.81,756.94,274.82H676.59C631.59,158.86,518.94,76.64,387.08,76.64Z"/></g></g></svg>